<svg xmlns="http://www.w3.org/2000/svg" viewBox="0 0 8.48 8.53"><defs><style>.cls-1{fill:#333;}</style></defs><title>Asset 7</title><g id="Layer_2" data-name="Layer 2"><g id="Layer_1-2" data-name="Layer 1"><path class="cls-1" d="M8.48,7.88a1.6,1.6,0,0,1-1.59,1.6H1.59A1.6,1.6,0,0,1,0,7.88V2.54A1.6,1.6,0,0,1,1.59.95h5.3a1.6,1.6,0,0,1,1.59,1.6ZM1.6,2.55a.14.14,0,0,0-.13.05.18.18,0,0,0-.06.13v.71a.18.18,0,0,0,.17.18A4.44,4.44,0,0,1,5.83,7.88.18.18,0,0,0,6,8.05h.71A.18.18,0,0,0,6.84,8a.14.14,0,0,0,0-.13A5.5,5.5,0,0,0,1.6,2.55Zm0,2.13a.17.17,0,0,0-.13.05.18.18,0,0,0-.06.13v.71a.18.18,0,0,0,.17.18A2.32,2.32,0,0,1,3.71,7.89a.18.18,0,0,0,.18.17h.71A.18.18,0,0,0,4.72,8a.17.17,0,0,0,0-.13A3.36,3.36,0,0,0,1.6,4.68Zm.52,1.95a.71.71,0,1,0,.71.71A.71.71,0,0,0,2.12,6.63Z" transform="translate(0 -0.95)"/></g></g></svg>