<svg xmlns="http://www.w3.org/2000/svg" viewBox="0 0 9.9 7.82"><defs><style>.cls-1{fill:#333;}</style></defs><title>Asset 4</title><g id="Layer_2" data-name="Layer 2"><g id="Layer_1-2" data-name="Layer 1"><path class="cls-1" d="M9,4.07,6.37,5.87c-.36.25-1,.76-1.41.76h0c-.45,0-1.06-.51-1.41-.76L1,4.07a2.17,2.17,0,0,1-1-1.4.9.9,0,0,1,.88-1H9a.89.89,0,0,1,.88.89A2,2,0,0,1,9,4.07ZM9.9,8.59A.89.89,0,0,1,9,9.48H.88A.89.89,0,0,1,0,8.59V4.18a3.06,3.06,0,0,0,.56.48c.92.63,1.84,1.26,2.75,1.92a3,3,0,0,0,1.64.77H5A3,3,0,0,0,6.6,6.58c.9-.66,1.83-1.29,2.75-1.92a3.24,3.24,0,0,0,.55-.48Z" transform="translate(0 -1.66)"/></g></g></svg>