<svg xmlns="http://www.w3.org/2000/svg" viewBox="0 0 11.31 7.82"><defs><style>.cls-1{fill:#333;}</style></defs><title>Asset 8</title><g id="Layer_2" data-name="Layer 2"><g id="Layer_1-2" data-name="Layer 1"><path class="cls-1" d="M11.31,7.7a1.06,1.06,0,0,1-1.06,1.07H1.06A1.06,1.06,0,0,1,0,7.7v-6H1.41V.95h9.9ZM1.41,2.37H.71V7.7a.35.35,0,1,0,.71,0Zm9.19-.71H2.12v6a1.1,1.1,0,0,1-.06.36h8.19a.36.36,0,0,0,.35-.36ZM6.36,5.92H2.83V2.37H6.36Zm0,1.42H2.83V6.63H6.36ZM3.54,3.08V5.21H5.66V3.08Zm6.36,0H7.07V2.37H9.9Zm0,1.42H7.07V3.79H9.9Zm0,1.42H7.07V5.21H9.9Zm0,1.42H7.07V6.63H9.9Z" transform="translate(0 -0.95)"/></g></g></svg>